<svg width="453" height="496" viewBox="0 0 453 496" fill="none" xmlns="http://www.w3.org/2000/svg">
<circle cx="329" cy="407" r="4" fill="#E1EDEC"/>
<circle cx="329" cy="423" r="4" fill="#E1EDEC"/>
<circle cx="329" cy="439" r="4" fill="#E1EDEC"/>
<circle cx="329" cy="455" r="4" fill="#E1EDEC"/>
<circle cx="329" cy="471" r="4" fill="#E1EDEC"/>
<circle cx="329" cy="487" r="4" fill="#E1EDEC"/>
<circle cx="426" cy="407" r="4" fill="#E1EDEC"/>
<circle cx="426" cy="423" r="4" fill="#E1EDEC"/>
<circle cx="426" cy="439" r="4" fill="#E1EDEC"/>
<circle cx="426" cy="455" r="4" fill="#E1EDEC"/>
<circle cx="426" cy="471" r="4" fill="#E1EDEC"/>
<circle cx="426" cy="487" r="4" fill="#E1EDEC"/>
<circle cx="378" cy="407" r="4" fill="#E1EDEC"/>
<circle cx="378" cy="423" r="4" fill="#E1EDEC"/>
<circle cx="378" cy="439" r="4" fill="#E1EDEC"/>
<circle cx="378" cy="455" r="4" fill="#E1EDEC"/>
<circle cx="378" cy="471" r="4" fill="#E1EDEC"/>
<circle cx="378" cy="487" r="4" fill="#E1EDEC"/>
<circle cx="345" cy="407" r="4" fill="#E1EDEC"/>
<circle cx="345" cy="423" r="4" fill="#E1EDEC"/>
<circle cx="345" cy="439" r="4" fill="#E1EDEC"/>
<circle cx="345" cy="455" r="4" fill="#E1EDEC"/>
<circle cx="345" cy="471" r="4" fill="#E1EDEC"/>
<circle cx="345" cy="487" r="4" fill="#E1EDEC"/>
<circle cx="442" cy="407" r="4" fill="#E1EDEC"/>
<circle cx="442" cy="423" r="4" fill="#E1EDEC"/>
<circle cx="442" cy="439" r="4" fill="#E1EDEC"/>
<circle cx="442" cy="455" r="4" fill="#E1EDEC"/>
<circle cx="442" cy="471" r="4" fill="#E1EDEC"/>
<circle cx="442" cy="487" r="4" fill="#E1EDEC"/>
<circle cx="394" cy="407" r="4" fill="#E1EDEC"/>
<circle cx="394" cy="423" r="4" fill="#E1EDEC"/>
<circle cx="394" cy="439" r="4" fill="#E1EDEC"/>
<circle cx="394" cy="455" r="4" fill="#E1EDEC"/>
<circle cx="394" cy="471" r="4" fill="#E1EDEC"/>
<circle cx="394" cy="487" r="4" fill="#E1EDEC"/>
<circle cx="361" cy="407" r="4" fill="#E1EDEC"/>
<circle cx="361" cy="423" r="4" fill="#E1EDEC"/>
<circle cx="361" cy="439" r="4" fill="#E1EDEC"/>
<circle cx="361" cy="455" r="4" fill="#E1EDEC"/>
<circle cx="361" cy="471" r="4" fill="#E1EDEC"/>
<circle cx="361" cy="487" r="4" fill="#E1EDEC"/>
<circle cx="410" cy="407" r="4" fill="#E1EDEC"/>
<circle cx="410" cy="423" r="4" fill="#E1EDEC"/>
<circle cx="410" cy="439" r="4" fill="#E1EDEC"/>
<circle cx="410" cy="455" r="4" fill="#E1EDEC"/>
<circle cx="410" cy="471" r="4" fill="#E1EDEC"/>
<circle cx="410" cy="487" r="4" fill="#E1EDEC"/>
<circle cx="329" cy="247" r="4" fill="#E1EDEC"/>
<circle cx="329" cy="263" r="4" fill="#E1EDEC"/>
<circle cx="329" cy="279" r="4" fill="#E1EDEC"/>
<circle cx="329" cy="295" r="4" fill="#E1EDEC"/>
<circle cx="329" cy="311" r="4" fill="#E1EDEC"/>
<circle cx="329" cy="327" r="4" fill="#E1EDEC"/>
<circle cx="329" cy="343" r="4" fill="#E1EDEC"/>
<circle cx="329" cy="359" r="4" fill="#E1EDEC"/>
<circle cx="329" cy="375" r="4" fill="#E1EDEC"/>
<circle cx="329" cy="391" r="4" fill="#E1EDEC"/>
<circle cx="426" cy="247" r="4" fill="#E1EDEC"/>
<circle cx="426" cy="263" r="4" fill="#E1EDEC"/>
<circle cx="426" cy="279" r="4" fill="#E1EDEC"/>
<circle cx="426" cy="295" r="4" fill="#E1EDEC"/>
<circle cx="426" cy="311" r="4" fill="#E1EDEC"/>
<circle cx="426" cy="327" r="4" fill="#E1EDEC"/>
<circle cx="426" cy="343" r="4" fill="#E1EDEC"/>
<circle cx="426" cy="359" r="4" fill="#E1EDEC"/>
<circle cx="426" cy="375" r="4" fill="#E1EDEC"/>
<circle cx="426" cy="391" r="4" fill="#E1EDEC"/>
<circle cx="378" cy="247" r="4" fill="#E1EDEC"/>
<circle cx="378" cy="263" r="4" fill="#E1EDEC"/>
<circle cx="378" cy="279" r="4" fill="#E1EDEC"/>
<circle cx="378" cy="295" r="4" fill="#E1EDEC"/>
<circle cx="378" cy="311" r="4" fill="#E1EDEC"/>
<circle cx="378" cy="327" r="4" fill="#E1EDEC"/>
<circle cx="378" cy="343" r="4" fill="#E1EDEC"/>
<circle cx="378" cy="359" r="4" fill="#E1EDEC"/>
<circle cx="378" cy="375" r="4" fill="#E1EDEC"/>
<circle cx="378" cy="391" r="4" fill="#E1EDEC"/>
<circle cx="345" cy="247" r="4" fill="#E1EDEC"/>
<circle cx="345" cy="263" r="4" fill="#E1EDEC"/>
<circle cx="345" cy="279" r="4" fill="#E1EDEC"/>
<circle cx="345" cy="295" r="4" fill="#E1EDEC"/>
<circle cx="345" cy="311" r="4" fill="#E1EDEC"/>
<circle cx="345" cy="327" r="4" fill="#E1EDEC"/>
<circle cx="345" cy="343" r="4" fill="#E1EDEC"/>
<circle cx="345" cy="359" r="4" fill="#E1EDEC"/>
<circle cx="345" cy="375" r="4" fill="#E1EDEC"/>
<circle cx="345" cy="391" r="4" fill="#E1EDEC"/>
<circle cx="442" cy="247" r="4" fill="#E1EDEC"/>
<circle cx="442" cy="263" r="4" fill="#E1EDEC"/>
<circle cx="442" cy="279" r="4" fill="#E1EDEC"/>
<circle cx="442" cy="295" r="4" fill="#E1EDEC"/>
<circle cx="442" cy="311" r="4" fill="#E1EDEC"/>
<circle cx="442" cy="327" r="4" fill="#E1EDEC"/>
<circle cx="442" cy="343" r="4" fill="#E1EDEC"/>
<circle cx="442" cy="359" r="4" fill="#E1EDEC"/>
<circle cx="442" cy="375" r="4" fill="#E1EDEC"/>
<circle cx="442" cy="391" r="4" fill="#E1EDEC"/>
<circle cx="394" cy="247" r="4" fill="#E1EDEC"/>
<circle cx="394" cy="263" r="4" fill="#E1EDEC"/>
<circle cx="394" cy="279" r="4" fill="#E1EDEC"/>
<circle cx="394" cy="295" r="4" fill="#E1EDEC"/>
<circle cx="394" cy="311" r="4" fill="#E1EDEC"/>
<circle cx="394" cy="327" r="4" fill="#E1EDEC"/>
<circle cx="394" cy="343" r="4" fill="#E1EDEC"/>
<circle cx="394" cy="359" r="4" fill="#E1EDEC"/>
<circle cx="394" cy="375" r="4" fill="#E1EDEC"/>
<circle cx="394" cy="391" r="4" fill="#E1EDEC"/>
<circle cx="361" cy="247" r="4" fill="#E1EDEC"/>
<circle cx="361" cy="263" r="4" fill="#E1EDEC"/>
<circle cx="361" cy="279" r="4" fill="#E1EDEC"/>
<circle cx="361" cy="295" r="4" fill="#E1EDEC"/>
<circle cx="361" cy="311" r="4" fill="#E1EDEC"/>
<circle cx="361" cy="327" r="4" fill="#E1EDEC"/>
<circle cx="361" cy="343" r="4" fill="#E1EDEC"/>
<circle cx="361" cy="359" r="4" fill="#E1EDEC"/>
<circle cx="361" cy="375" r="4" fill="#E1EDEC"/>
<circle cx="361" cy="391" r="4" fill="#E1EDEC"/>
<circle cx="410" cy="247" r="4" fill="#E1EDEC"/>
<circle cx="410" cy="263" r="4" fill="#E1EDEC"/>
<circle cx="410" cy="279" r="4" fill="#E1EDEC"/>
<circle cx="410" cy="295" r="4" fill="#E1EDEC"/>
<circle cx="410" cy="311" r="4" fill="#E1EDEC"/>
<circle cx="410" cy="327" r="4" fill="#E1EDEC"/>
<circle cx="410" cy="343" r="4" fill="#E1EDEC"/>
<circle cx="410" cy="359" r="4" fill="#E1EDEC"/>
<circle cx="410" cy="375" r="4" fill="#E1EDEC"/>
<circle cx="410" cy="391" r="4" fill="#E1EDEC"/>
<circle cx="328" cy="87" r="4" fill="#E1EDEC"/>
<circle cx="328" cy="103" r="4" fill="#E1EDEC"/>
<circle cx="328" cy="119" r="4" fill="#E1EDEC"/>
<circle cx="328" cy="135" r="4" fill="#E1EDEC"/>
<circle cx="328" cy="151" r="4" fill="#E1EDEC"/>
<circle cx="328" cy="167" r="4" fill="#E1EDEC"/>
<circle cx="328" cy="183" r="4" fill="#E1EDEC"/>
<circle cx="328" cy="199" r="4" fill="#E1EDEC"/>
<circle cx="328" cy="215" r="4" fill="#E1EDEC"/>
<circle cx="328" cy="231" r="4" fill="#E1EDEC"/>
<circle cx="425" cy="87" r="4" fill="#E1EDEC"/>
<circle cx="425" cy="103" r="4" fill="#E1EDEC"/>
<circle cx="425" cy="119" r="4" fill="#E1EDEC"/>
<circle cx="425" cy="135" r="4" fill="#E1EDEC"/>
<circle cx="425" cy="151" r="4" fill="#E1EDEC"/>
<circle cx="425" cy="167" r="4" fill="#E1EDEC"/>
<circle cx="425" cy="183" r="4" fill="#E1EDEC"/>
<circle cx="425" cy="199" r="4" fill="#E1EDEC"/>
<circle cx="425" cy="215" r="4" fill="#E1EDEC"/>
<circle cx="425" cy="231" r="4" fill="#E1EDEC"/>
<circle cx="377" cy="87" r="4" fill="#E1EDEC"/>
<circle cx="377" cy="103" r="4" fill="#E1EDEC"/>
<circle cx="377" cy="119" r="4" fill="#E1EDEC"/>
<circle cx="377" cy="135" r="4" fill="#E1EDEC"/>
<circle cx="377" cy="151" r="4" fill="#E1EDEC"/>
<circle cx="377" cy="167" r="4" fill="#E1EDEC"/>
<circle cx="377" cy="183" r="4" fill="#E1EDEC"/>
<circle cx="377" cy="199" r="4" fill="#E1EDEC"/>
<circle cx="377" cy="215" r="4" fill="#E1EDEC"/>
<circle cx="377" cy="231" r="4" fill="#E1EDEC"/>
<circle cx="344" cy="87" r="4" fill="#E1EDEC"/>
<circle cx="344" cy="103" r="4" fill="#E1EDEC"/>
<circle cx="344" cy="119" r="4" fill="#E1EDEC"/>
<circle cx="344" cy="135" r="4" fill="#E1EDEC"/>
<circle cx="344" cy="151" r="4" fill="#E1EDEC"/>
<circle cx="344" cy="167" r="4" fill="#E1EDEC"/>
<circle cx="344" cy="183" r="4" fill="#E1EDEC"/>
<circle cx="344" cy="199" r="4" fill="#E1EDEC"/>
<circle cx="344" cy="215" r="4" fill="#E1EDEC"/>
<circle cx="344" cy="231" r="4" fill="#E1EDEC"/>
<circle cx="441" cy="87" r="4" fill="#E1EDEC"/>
<circle cx="441" cy="103" r="4" fill="#E1EDEC"/>
<circle cx="441" cy="119" r="4" fill="#E1EDEC"/>
<circle cx="441" cy="135" r="4" fill="#E1EDEC"/>
<circle cx="441" cy="151" r="4" fill="#E1EDEC"/>
<circle cx="441" cy="167" r="4" fill="#E1EDEC"/>
<circle cx="441" cy="183" r="4" fill="#E1EDEC"/>
<circle cx="441" cy="199" r="4" fill="#E1EDEC"/>
<circle cx="441" cy="215" r="4" fill="#E1EDEC"/>
<circle cx="441" cy="231" r="4" fill="#E1EDEC"/>
<circle cx="393" cy="87" r="4" fill="#E1EDEC"/>
<circle cx="393" cy="103" r="4" fill="#E1EDEC"/>
<circle cx="393" cy="119" r="4" fill="#E1EDEC"/>
<circle cx="393" cy="135" r="4" fill="#E1EDEC"/>
<circle cx="393" cy="151" r="4" fill="#E1EDEC"/>
<circle cx="393" cy="167" r="4" fill="#E1EDEC"/>
<circle cx="393" cy="183" r="4" fill="#E1EDEC"/>
<circle cx="393" cy="199" r="4" fill="#E1EDEC"/>
<circle cx="393" cy="215" r="4" fill="#E1EDEC"/>
<circle cx="393" cy="231" r="4" fill="#E1EDEC"/>
<circle cx="360" cy="87" r="4" fill="#E1EDEC"/>
<circle cx="360" cy="103" r="4" fill="#E1EDEC"/>
<circle cx="360" cy="119" r="4" fill="#E1EDEC"/>
<circle cx="360" cy="135" r="4" fill="#E1EDEC"/>
<circle cx="360" cy="151" r="4" fill="#E1EDEC"/>
<circle cx="360" cy="167" r="4" fill="#E1EDEC"/>
<circle cx="360" cy="183" r="4" fill="#E1EDEC"/>
<circle cx="360" cy="199" r="4" fill="#E1EDEC"/>
<circle cx="360" cy="215" r="4" fill="#E1EDEC"/>
<circle cx="360" cy="231" r="4" fill="#E1EDEC"/>
<circle cx="409" cy="87" r="4" fill="#E1EDEC"/>
<circle cx="409" cy="103" r="4" fill="#E1EDEC"/>
<circle cx="409" cy="119" r="4" fill="#E1EDEC"/>
<circle cx="409" cy="135" r="4" fill="#E1EDEC"/>
<circle cx="409" cy="151" r="4" fill="#E1EDEC"/>
<circle cx="409" cy="167" r="4" fill="#E1EDEC"/>
<circle cx="409" cy="183" r="4" fill="#E1EDEC"/>
<circle cx="409" cy="199" r="4" fill="#E1EDEC"/>
<circle cx="409" cy="215" r="4" fill="#E1EDEC"/>
<circle cx="409" cy="231" r="4" fill="#E1EDEC"/>
<circle cx="167" cy="375" r="4" fill="#E1EDEC"/>
<circle cx="167" cy="391" r="4" fill="#E1EDEC"/>
<circle cx="167" cy="407" r="4" fill="#E1EDEC"/>
<circle cx="167" cy="423" r="4" fill="#E1EDEC"/>
<circle cx="167" cy="439" r="4" fill="#E1EDEC"/>
<circle cx="167" cy="455" r="4" fill="#E1EDEC"/>
<circle cx="167" cy="471" r="4" fill="#E1EDEC"/>
<circle cx="167" cy="487" r="4" fill="#E1EDEC"/>
<circle cx="264" cy="375" r="4" fill="#E1EDEC"/>
<circle cx="264" cy="391" r="4" fill="#E1EDEC"/>
<circle cx="264" cy="407" r="4" fill="#E1EDEC"/>
<circle cx="264" cy="423" r="4" fill="#E1EDEC"/>
<circle cx="264" cy="439" r="4" fill="#E1EDEC"/>
<circle cx="264" cy="455" r="4" fill="#E1EDEC"/>
<circle cx="264" cy="471" r="4" fill="#E1EDEC"/>
<circle cx="264" cy="487" r="4" fill="#E1EDEC"/>
<circle cx="216" cy="375" r="4" fill="#E1EDEC"/>
<circle cx="216" cy="391" r="4" fill="#E1EDEC"/>
<circle cx="216" cy="407" r="4" fill="#E1EDEC"/>
<circle cx="216" cy="423" r="4" fill="#E1EDEC"/>
<circle cx="216" cy="439" r="4" fill="#E1EDEC"/>
<circle cx="216" cy="455" r="4" fill="#E1EDEC"/>
<circle cx="216" cy="471" r="4" fill="#E1EDEC"/>
<circle cx="216" cy="487" r="4" fill="#E1EDEC"/>
<circle cx="313" cy="375" r="4" fill="#E1EDEC"/>
<circle cx="313" cy="391" r="4" fill="#E1EDEC"/>
<circle cx="313" cy="407" r="4" fill="#E1EDEC"/>
<circle cx="313" cy="423" r="4" fill="#E1EDEC"/>
<circle cx="313" cy="439" r="4" fill="#E1EDEC"/>
<circle cx="313" cy="455" r="4" fill="#E1EDEC"/>
<circle cx="313" cy="471" r="4" fill="#E1EDEC"/>
<circle cx="313" cy="487" r="4" fill="#E1EDEC"/>
<circle cx="183" cy="375" r="4" fill="#E1EDEC"/>
<circle cx="183" cy="391" r="4" fill="#E1EDEC"/>
<circle cx="183" cy="407" r="4" fill="#E1EDEC"/>
<circle cx="183" cy="423" r="4" fill="#E1EDEC"/>
<circle cx="183" cy="439" r="4" fill="#E1EDEC"/>
<circle cx="183" cy="455" r="4" fill="#E1EDEC"/>
<circle cx="183" cy="471" r="4" fill="#E1EDEC"/>
<circle cx="183" cy="487" r="4" fill="#E1EDEC"/>
<circle cx="280" cy="375" r="4" fill="#E1EDEC"/>
<circle cx="280" cy="391" r="4" fill="#E1EDEC"/>
<circle cx="280" cy="407" r="4" fill="#E1EDEC"/>
<circle cx="280" cy="423" r="4" fill="#E1EDEC"/>
<circle cx="280" cy="439" r="4" fill="#E1EDEC"/>
<circle cx="280" cy="455" r="4" fill="#E1EDEC"/>
<circle cx="280" cy="471" r="4" fill="#E1EDEC"/>
<circle cx="280" cy="487" r="4" fill="#E1EDEC"/>
<circle cx="232" cy="375" r="4" fill="#E1EDEC"/>
<circle cx="232" cy="391" r="4" fill="#E1EDEC"/>
<circle cx="232" cy="407" r="4" fill="#E1EDEC"/>
<circle cx="232" cy="423" r="4" fill="#E1EDEC"/>
<circle cx="232" cy="439" r="4" fill="#E1EDEC"/>
<circle cx="232" cy="455" r="4" fill="#E1EDEC"/>
<circle cx="232" cy="471" r="4" fill="#E1EDEC"/>
<circle cx="232" cy="487" r="4" fill="#E1EDEC"/>
<circle cx="199" cy="375" r="4" fill="#E1EDEC"/>
<circle cx="199" cy="391" r="4" fill="#E1EDEC"/>
<circle cx="199" cy="407" r="4" fill="#E1EDEC"/>
<circle cx="199" cy="423" r="4" fill="#E1EDEC"/>
<circle cx="199" cy="439" r="4" fill="#E1EDEC"/>
<circle cx="199" cy="455" r="4" fill="#E1EDEC"/>
<circle cx="199" cy="471" r="4" fill="#E1EDEC"/>
<circle cx="199" cy="487" r="4" fill="#E1EDEC"/>
<circle cx="296" cy="375" r="4" fill="#E1EDEC"/>
<circle cx="296" cy="391" r="4" fill="#E1EDEC"/>
<circle cx="296" cy="407" r="4" fill="#E1EDEC"/>
<circle cx="296" cy="423" r="4" fill="#E1EDEC"/>
<circle cx="296" cy="439" r="4" fill="#E1EDEC"/>
<circle cx="296" cy="455" r="4" fill="#E1EDEC"/>
<circle cx="296" cy="471" r="4" fill="#E1EDEC"/>
<circle cx="296" cy="487" r="4" fill="#E1EDEC"/>
<circle cx="248" cy="375" r="4" fill="#E1EDEC"/>
<circle cx="248" cy="391" r="4" fill="#E1EDEC"/>
<circle cx="248" cy="407" r="4" fill="#E1EDEC"/>
<circle cx="248" cy="423" r="4" fill="#E1EDEC"/>
<circle cx="248" cy="439" r="4" fill="#E1EDEC"/>
<circle cx="248" cy="455" r="4" fill="#E1EDEC"/>
<circle cx="248" cy="471" r="4" fill="#E1EDEC"/>
<circle cx="248" cy="487" r="4" fill="#E1EDEC"/>
<circle cx="167" cy="215" r="4" fill="#E1EDEC"/>
<circle cx="167" cy="231" r="4" fill="#E1EDEC"/>
<circle cx="167" cy="247" r="4" fill="#E1EDEC"/>
<circle cx="167" cy="263" r="4" fill="#E1EDEC"/>
<circle cx="167" cy="279" r="4" fill="#E1EDEC"/>
<circle cx="167" cy="295" r="4" fill="#E1EDEC"/>
<circle cx="167" cy="311" r="4" fill="#E1EDEC"/>
<circle cx="167" cy="327" r="4" fill="#E1EDEC"/>
<circle cx="167" cy="343" r="4" fill="#E1EDEC"/>
<circle cx="167" cy="359" r="4" fill="#E1EDEC"/>
<circle cx="264" cy="215" r="4" fill="#E1EDEC"/>
<circle cx="264" cy="231" r="4" fill="#E1EDEC"/>
<circle cx="264" cy="247" r="4" fill="#E1EDEC"/>
<circle cx="264" cy="263" r="4" fill="#E1EDEC"/>
<circle cx="264" cy="279" r="4" fill="#E1EDEC"/>
<circle cx="264" cy="295" r="4" fill="#E1EDEC"/>
<circle cx="264" cy="311" r="4" fill="#E1EDEC"/>
<circle cx="264" cy="327" r="4" fill="#E1EDEC"/>
<circle cx="264" cy="343" r="4" fill="#E1EDEC"/>
<circle cx="264" cy="359" r="4" fill="#E1EDEC"/>
<circle cx="216" cy="215" r="4" fill="#E1EDEC"/>
<circle cx="216" cy="231" r="4" fill="#E1EDEC"/>
<circle cx="216" cy="247" r="4" fill="#E1EDEC"/>
<circle cx="216" cy="263" r="4" fill="#E1EDEC"/>
<circle cx="216" cy="279" r="4" fill="#E1EDEC"/>
<circle cx="216" cy="295" r="4" fill="#E1EDEC"/>
<circle cx="216" cy="311" r="4" fill="#E1EDEC"/>
<circle cx="216" cy="327" r="4" fill="#E1EDEC"/>
<circle cx="216" cy="343" r="4" fill="#E1EDEC"/>
<circle cx="216" cy="359" r="4" fill="#E1EDEC"/>
<circle cx="313" cy="215" r="4" fill="#E1EDEC"/>
<circle cx="313" cy="231" r="4" fill="#E1EDEC"/>
<circle cx="313" cy="247" r="4" fill="#E1EDEC"/>
<circle cx="313" cy="263" r="4" fill="#E1EDEC"/>
<circle cx="313" cy="279" r="4" fill="#E1EDEC"/>
<circle cx="313" cy="295" r="4" fill="#E1EDEC"/>
<circle cx="313" cy="311" r="4" fill="#E1EDEC"/>
<circle cx="313" cy="327" r="4" fill="#E1EDEC"/>
<circle cx="313" cy="343" r="4" fill="#E1EDEC"/>
<circle cx="313" cy="359" r="4" fill="#E1EDEC"/>
<circle cx="183" cy="215" r="4" fill="#E1EDEC"/>
<circle cx="183" cy="231" r="4" fill="#E1EDEC"/>
<circle cx="183" cy="247" r="4" fill="#E1EDEC"/>
<circle cx="183" cy="263" r="4" fill="#E1EDEC"/>
<circle cx="183" cy="279" r="4" fill="#E1EDEC"/>
<circle cx="183" cy="295" r="4" fill="#E1EDEC"/>
<circle cx="183" cy="311" r="4" fill="#E1EDEC"/>
<circle cx="183" cy="327" r="4" fill="#E1EDEC"/>
<circle cx="183" cy="343" r="4" fill="#E1EDEC"/>
<circle cx="183" cy="359" r="4" fill="#E1EDEC"/>
<circle cx="280" cy="215" r="4" fill="#E1EDEC"/>
<circle cx="280" cy="231" r="4" fill="#E1EDEC"/>
<circle cx="280" cy="247" r="4" fill="#E1EDEC"/>
<circle cx="280" cy="263" r="4" fill="#E1EDEC"/>
<circle cx="280" cy="279" r="4" fill="#E1EDEC"/>
<circle cx="280" cy="295" r="4" fill="#E1EDEC"/>
<circle cx="280" cy="311" r="4" fill="#E1EDEC"/>
<circle cx="280" cy="327" r="4" fill="#E1EDEC"/>
<circle cx="280" cy="343" r="4" fill="#E1EDEC"/>
<circle cx="280" cy="359" r="4" fill="#E1EDEC"/>
<circle cx="232" cy="215" r="4" fill="#E1EDEC"/>
<circle cx="232" cy="231" r="4" fill="#E1EDEC"/>
<circle cx="232" cy="247" r="4" fill="#E1EDEC"/>
<circle cx="232" cy="263" r="4" fill="#E1EDEC"/>
<circle cx="232" cy="279" r="4" fill="#E1EDEC"/>
<circle cx="232" cy="295" r="4" fill="#E1EDEC"/>
<circle cx="232" cy="311" r="4" fill="#E1EDEC"/>
<circle cx="232" cy="327" r="4" fill="#E1EDEC"/>
<circle cx="232" cy="343" r="4" fill="#E1EDEC"/>
<circle cx="232" cy="359" r="4" fill="#E1EDEC"/>
<circle cx="199" cy="215" r="4" fill="#E1EDEC"/>
<circle cx="199" cy="231" r="4" fill="#E1EDEC"/>
<circle cx="199" cy="247" r="4" fill="#E1EDEC"/>
<circle cx="199" cy="263" r="4" fill="#E1EDEC"/>
<circle cx="199" cy="279" r="4" fill="#E1EDEC"/>
<circle cx="199" cy="295" r="4" fill="#E1EDEC"/>
<circle cx="199" cy="311" r="4" fill="#E1EDEC"/>
<circle cx="199" cy="327" r="4" fill="#E1EDEC"/>
<circle cx="199" cy="343" r="4" fill="#E1EDEC"/>
<circle cx="199" cy="359" r="4" fill="#E1EDEC"/>
<circle cx="296" cy="215" r="4" fill="#E1EDEC"/>
<circle cx="296" cy="231" r="4" fill="#E1EDEC"/>
<circle cx="296" cy="247" r="4" fill="#E1EDEC"/>
<circle cx="296" cy="263" r="4" fill="#E1EDEC"/>
<circle cx="296" cy="279" r="4" fill="#E1EDEC"/>
<circle cx="296" cy="295" r="4" fill="#E1EDEC"/>
<circle cx="296" cy="311" r="4" fill="#E1EDEC"/>
<circle cx="296" cy="327" r="4" fill="#E1EDEC"/>
<circle cx="296" cy="343" r="4" fill="#E1EDEC"/>
<circle cx="296" cy="359" r="4" fill="#E1EDEC"/>
<circle cx="248" cy="215" r="4" fill="#E1EDEC"/>
<circle cx="248" cy="231" r="4" fill="#E1EDEC"/>
<circle cx="248" cy="247" r="4" fill="#E1EDEC"/>
<circle cx="248" cy="263" r="4" fill="#E1EDEC"/>
<circle cx="248" cy="279" r="4" fill="#E1EDEC"/>
<circle cx="248" cy="295" r="4" fill="#E1EDEC"/>
<circle cx="248" cy="311" r="4" fill="#E1EDEC"/>
<circle cx="248" cy="327" r="4" fill="#E1EDEC"/>
<circle cx="248" cy="343" r="4" fill="#E1EDEC"/>
<circle cx="248" cy="359" r="4" fill="#E1EDEC"/>
<circle cx="166" cy="55" r="4" fill="#E1EDEC"/>
<circle cx="166" cy="71" r="4" fill="#E1EDEC"/>
<circle cx="166" cy="87" r="4" fill="#E1EDEC"/>
<circle cx="166" cy="103" r="4" fill="#E1EDEC"/>
<circle cx="166" cy="119" r="4" fill="#E1EDEC"/>
<circle cx="166" cy="135" r="4" fill="#E1EDEC"/>
<circle cx="166" cy="151" r="4" fill="#E1EDEC"/>
<circle cx="166" cy="167" r="4" fill="#E1EDEC"/>
<circle cx="166" cy="183" r="4" fill="#E1EDEC"/>
<circle cx="166" cy="199" r="4" fill="#E1EDEC"/>
<circle cx="263" cy="55" r="4" fill="#E1EDEC"/>
<circle cx="263" cy="71" r="4" fill="#E1EDEC"/>
<circle cx="263" cy="87" r="4" fill="#E1EDEC"/>
<circle cx="263" cy="103" r="4" fill="#E1EDEC"/>
<circle cx="263" cy="119" r="4" fill="#E1EDEC"/>
<circle cx="263" cy="135" r="4" fill="#E1EDEC"/>
<circle cx="263" cy="151" r="4" fill="#E1EDEC"/>
<circle cx="263" cy="167" r="4" fill="#E1EDEC"/>
<circle cx="263" cy="183" r="4" fill="#E1EDEC"/>
<circle cx="263" cy="199" r="4" fill="#E1EDEC"/>
<circle cx="215" cy="55" r="4" fill="#E1EDEC"/>
<circle cx="215" cy="71" r="4" fill="#E1EDEC"/>
<circle cx="215" cy="87" r="4" fill="#E1EDEC"/>
<circle cx="215" cy="103" r="4" fill="#E1EDEC"/>
<circle cx="215" cy="119" r="4" fill="#E1EDEC"/>
<circle cx="215" cy="135" r="4" fill="#E1EDEC"/>
<circle cx="215" cy="151" r="4" fill="#E1EDEC"/>
<circle cx="215" cy="167" r="4" fill="#E1EDEC"/>
<circle cx="215" cy="183" r="4" fill="#E1EDEC"/>
<circle cx="215" cy="199" r="4" fill="#E1EDEC"/>
<circle cx="312" cy="55" r="4" fill="#E1EDEC"/>
<circle cx="312" cy="71" r="4" fill="#E1EDEC"/>
<circle cx="312" cy="87" r="4" fill="#E1EDEC"/>
<circle cx="312" cy="103" r="4" fill="#E1EDEC"/>
<circle cx="312" cy="119" r="4" fill="#E1EDEC"/>
<circle cx="312" cy="135" r="4" fill="#E1EDEC"/>
<circle cx="312" cy="151" r="4" fill="#E1EDEC"/>
<circle cx="312" cy="167" r="4" fill="#E1EDEC"/>
<circle cx="312" cy="183" r="4" fill="#E1EDEC"/>
<circle cx="312" cy="199" r="4" fill="#E1EDEC"/>
<circle cx="182" cy="55" r="4" fill="#E1EDEC"/>
<circle cx="182" cy="71" r="4" fill="#E1EDEC"/>
<circle cx="182" cy="87" r="4" fill="#E1EDEC"/>
<circle cx="182" cy="103" r="4" fill="#E1EDEC"/>
<circle cx="182" cy="119" r="4" fill="#E1EDEC"/>
<circle cx="182" cy="135" r="4" fill="#E1EDEC"/>
<circle cx="182" cy="151" r="4" fill="#E1EDEC"/>
<circle cx="182" cy="167" r="4" fill="#E1EDEC"/>
<circle cx="182" cy="183" r="4" fill="#E1EDEC"/>
<circle cx="182" cy="199" r="4" fill="#E1EDEC"/>
<circle cx="279" cy="55" r="4" fill="#E1EDEC"/>
<circle cx="279" cy="71" r="4" fill="#E1EDEC"/>
<circle cx="279" cy="87" r="4" fill="#E1EDEC"/>
<circle cx="279" cy="103" r="4" fill="#E1EDEC"/>
<circle cx="279" cy="119" r="4" fill="#E1EDEC"/>
<circle cx="279" cy="135" r="4" fill="#E1EDEC"/>
<circle cx="279" cy="151" r="4" fill="#E1EDEC"/>
<circle cx="279" cy="167" r="4" fill="#E1EDEC"/>
<circle cx="279" cy="183" r="4" fill="#E1EDEC"/>
<circle cx="279" cy="199" r="4" fill="#E1EDEC"/>
<circle cx="231" cy="55" r="4" fill="#E1EDEC"/>
<circle cx="231" cy="71" r="4" fill="#E1EDEC"/>
<circle cx="231" cy="87" r="4" fill="#E1EDEC"/>
<circle cx="231" cy="103" r="4" fill="#E1EDEC"/>
<circle cx="231" cy="119" r="4" fill="#E1EDEC"/>
<circle cx="231" cy="135" r="4" fill="#E1EDEC"/>
<circle cx="231" cy="151" r="4" fill="#E1EDEC"/>
<circle cx="231" cy="167" r="4" fill="#E1EDEC"/>
<circle cx="231" cy="183" r="4" fill="#E1EDEC"/>
<circle cx="231" cy="199" r="4" fill="#E1EDEC"/>
<circle cx="198" cy="55" r="4" fill="#E1EDEC"/>
<circle cx="198" cy="71" r="4" fill="#E1EDEC"/>
<circle cx="198" cy="87" r="4" fill="#E1EDEC"/>
<circle cx="198" cy="103" r="4" fill="#E1EDEC"/>
<circle cx="198" cy="119" r="4" fill="#E1EDEC"/>
<circle cx="198" cy="135" r="4" fill="#E1EDEC"/>
<circle cx="198" cy="151" r="4" fill="#E1EDEC"/>
<circle cx="198" cy="167" r="4" fill="#E1EDEC"/>
<circle cx="198" cy="183" r="4" fill="#E1EDEC"/>
<circle cx="198" cy="199" r="4" fill="#E1EDEC"/>
<circle cx="295" cy="55" r="4" fill="#E1EDEC"/>
<circle cx="295" cy="71" r="4" fill="#E1EDEC"/>
<circle cx="295" cy="87" r="4" fill="#E1EDEC"/>
<circle cx="295" cy="103" r="4" fill="#E1EDEC"/>
<circle cx="295" cy="119" r="4" fill="#E1EDEC"/>
<circle cx="295" cy="135" r="4" fill="#E1EDEC"/>
<circle cx="295" cy="151" r="4" fill="#E1EDEC"/>
<circle cx="295" cy="167" r="4" fill="#E1EDEC"/>
<circle cx="295" cy="183" r="4" fill="#E1EDEC"/>
<circle cx="295" cy="199" r="4" fill="#E1EDEC"/>
<circle cx="247" cy="55" r="4" fill="#E1EDEC"/>
<circle cx="247" cy="71" r="4" fill="#E1EDEC"/>
<circle cx="247" cy="87" r="4" fill="#E1EDEC"/>
<circle cx="247" cy="103" r="4" fill="#E1EDEC"/>
<circle cx="247" cy="119" r="4" fill="#E1EDEC"/>
<circle cx="247" cy="135" r="4" fill="#E1EDEC"/>
<circle cx="247" cy="151" r="4" fill="#E1EDEC"/>
<circle cx="247" cy="167" r="4" fill="#E1EDEC"/>
<circle cx="247" cy="183" r="4" fill="#E1EDEC"/>
<circle cx="247" cy="199" r="4" fill="#E1EDEC"/>
<circle cx="5" cy="359" r="4" fill="#E1EDEC"/>
<circle cx="5" cy="375" r="4" fill="#E1EDEC"/>
<circle cx="5" cy="391" r="4" fill="#E1EDEC"/>
<circle cx="5" cy="407" r="4" fill="#E1EDEC"/>
<circle cx="5" cy="423" r="4" fill="#E1EDEC"/>
<circle cx="5" cy="439" r="4" fill="#E1EDEC"/>
<circle cx="5" cy="455" r="4" fill="#E1EDEC"/>
<circle cx="5" cy="471" r="4" fill="#E1EDEC"/>
<circle cx="5" cy="487" r="4" fill="#E1EDEC"/>
<circle cx="102" cy="359" r="4" fill="#E1EDEC"/>
<circle cx="102" cy="375" r="4" fill="#E1EDEC"/>
<circle cx="102" cy="391" r="4" fill="#E1EDEC"/>
<circle cx="102" cy="407" r="4" fill="#E1EDEC"/>
<circle cx="102" cy="423" r="4" fill="#E1EDEC"/>
<circle cx="102" cy="439" r="4" fill="#E1EDEC"/>
<circle cx="102" cy="455" r="4" fill="#E1EDEC"/>
<circle cx="102" cy="471" r="4" fill="#E1EDEC"/>
<circle cx="102" cy="487" r="4" fill="#E1EDEC"/>
<circle cx="54" cy="359" r="4" fill="#E1EDEC"/>
<circle cx="54" cy="375" r="4" fill="#E1EDEC"/>
<circle cx="54" cy="391" r="4" fill="#E1EDEC"/>
<circle cx="54" cy="407" r="4" fill="#E1EDEC"/>
<circle cx="54" cy="423" r="4" fill="#E1EDEC"/>
<circle cx="54" cy="439" r="4" fill="#E1EDEC"/>
<circle cx="54" cy="455" r="4" fill="#E1EDEC"/>
<circle cx="54" cy="471" r="4" fill="#E1EDEC"/>
<circle cx="54" cy="487" r="4" fill="#E1EDEC"/>
<circle cx="151" cy="359" r="4" fill="#E1EDEC"/>
<circle cx="151" cy="375" r="4" fill="#E1EDEC"/>
<circle cx="151" cy="391" r="4" fill="#E1EDEC"/>
<circle cx="151" cy="407" r="4" fill="#E1EDEC"/>
<circle cx="151" cy="423" r="4" fill="#E1EDEC"/>
<circle cx="151" cy="439" r="4" fill="#E1EDEC"/>
<circle cx="151" cy="455" r="4" fill="#E1EDEC"/>
<circle cx="151" cy="471" r="4" fill="#E1EDEC"/>
<circle cx="151" cy="487" r="4" fill="#E1EDEC"/>
<circle cx="21" cy="359" r="4" fill="#E1EDEC"/>
<circle cx="21" cy="375" r="4" fill="#E1EDEC"/>
<circle cx="21" cy="391" r="4" fill="#E1EDEC"/>
<circle cx="21" cy="407" r="4" fill="#E1EDEC"/>
<circle cx="21" cy="423" r="4" fill="#E1EDEC"/>
<circle cx="21" cy="439" r="4" fill="#E1EDEC"/>
<circle cx="21" cy="455" r="4" fill="#E1EDEC"/>
<circle cx="21" cy="471" r="4" fill="#E1EDEC"/>
<circle cx="21" cy="487" r="4" fill="#E1EDEC"/>
<circle cx="118" cy="359" r="4" fill="#E1EDEC"/>
<circle cx="118" cy="375" r="4" fill="#E1EDEC"/>
<circle cx="118" cy="391" r="4" fill="#E1EDEC"/>
<circle cx="118" cy="407" r="4" fill="#E1EDEC"/>
<circle cx="118" cy="423" r="4" fill="#E1EDEC"/>
<circle cx="118" cy="439" r="4" fill="#E1EDEC"/>
<circle cx="118" cy="455" r="4" fill="#E1EDEC"/>
<circle cx="118" cy="471" r="4" fill="#E1EDEC"/>
<circle cx="118" cy="487" r="4" fill="#E1EDEC"/>
<circle cx="70" cy="359" r="4" fill="#E1EDEC"/>
<circle cx="70" cy="375" r="4" fill="#E1EDEC"/>
<circle cx="70" cy="391" r="4" fill="#E1EDEC"/>
<circle cx="70" cy="407" r="4" fill="#E1EDEC"/>
<circle cx="70" cy="423" r="4" fill="#E1EDEC"/>
<circle cx="70" cy="439" r="4" fill="#E1EDEC"/>
<circle cx="70" cy="455" r="4" fill="#E1EDEC"/>
<circle cx="70" cy="471" r="4" fill="#E1EDEC"/>
<circle cx="70" cy="487" r="4" fill="#E1EDEC"/>
<circle cx="37" cy="359" r="4" fill="#E1EDEC"/>
<circle cx="37" cy="375" r="4" fill="#E1EDEC"/>
<circle cx="37" cy="391" r="4" fill="#E1EDEC"/>
<circle cx="37" cy="407" r="4" fill="#E1EDEC"/>
<circle cx="37" cy="423" r="4" fill="#E1EDEC"/>
<circle cx="37" cy="439" r="4" fill="#E1EDEC"/>
<circle cx="37" cy="455" r="4" fill="#E1EDEC"/>
<circle cx="37" cy="471" r="4" fill="#E1EDEC"/>
<circle cx="37" cy="487" r="4" fill="#E1EDEC"/>
<circle cx="134" cy="359" r="4" fill="#E1EDEC"/>
<circle cx="134" cy="375" r="4" fill="#E1EDEC"/>
<circle cx="134" cy="391" r="4" fill="#E1EDEC"/>
<circle cx="134" cy="407" r="4" fill="#E1EDEC"/>
<circle cx="134" cy="423" r="4" fill="#E1EDEC"/>
<circle cx="134" cy="439" r="4" fill="#E1EDEC"/>
<circle cx="134" cy="455" r="4" fill="#E1EDEC"/>
<circle cx="134" cy="471" r="4" fill="#E1EDEC"/>
<circle cx="134" cy="487" r="4" fill="#E1EDEC"/>
<circle cx="86" cy="359" r="4" fill="#E1EDEC"/>
<circle cx="86" cy="375" r="4" fill="#E1EDEC"/>
<circle cx="86" cy="391" r="4" fill="#E1EDEC"/>
<circle cx="86" cy="407" r="4" fill="#E1EDEC"/>
<circle cx="86" cy="423" r="4" fill="#E1EDEC"/>
<circle cx="86" cy="439" r="4" fill="#E1EDEC"/>
<circle cx="86" cy="455" r="4" fill="#E1EDEC"/>
<circle cx="86" cy="471" r="4" fill="#E1EDEC"/>
<circle cx="86" cy="487" r="4" fill="#E1EDEC"/>
<circle cx="5" cy="199" r="4" fill="#E1EDEC"/>
<circle cx="5" cy="215" r="4" fill="#E1EDEC"/>
<circle cx="5" cy="231" r="4" fill="#E1EDEC"/>
<circle cx="5" cy="247" r="4" fill="#E1EDEC"/>
<circle cx="5" cy="263" r="4" fill="#E1EDEC"/>
<circle cx="5" cy="279" r="4" fill="#E1EDEC"/>
<circle cx="5" cy="295" r="4" fill="#E1EDEC"/>
<circle cx="5" cy="311" r="4" fill="#E1EDEC"/>
<circle cx="5" cy="327" r="4" fill="#E1EDEC"/>
<circle cx="5" cy="343" r="4" fill="#E1EDEC"/>
<circle cx="102" cy="199" r="4" fill="#E1EDEC"/>
<circle cx="102" cy="215" r="4" fill="#E1EDEC"/>
<circle cx="102" cy="231" r="4" fill="#E1EDEC"/>
<circle cx="102" cy="247" r="4" fill="#E1EDEC"/>
<circle cx="102" cy="263" r="4" fill="#E1EDEC"/>
<circle cx="102" cy="279" r="4" fill="#E1EDEC"/>
<circle cx="102" cy="295" r="4" fill="#E1EDEC"/>
<circle cx="102" cy="311" r="4" fill="#E1EDEC"/>
<circle cx="102" cy="327" r="4" fill="#E1EDEC"/>
<circle cx="102" cy="343" r="4" fill="#E1EDEC"/>
<circle cx="54" cy="199" r="4" fill="#E1EDEC"/>
<circle cx="54" cy="215" r="4" fill="#E1EDEC"/>
<circle cx="54" cy="231" r="4" fill="#E1EDEC"/>
<circle cx="54" cy="247" r="4" fill="#E1EDEC"/>
<circle cx="54" cy="263" r="4" fill="#E1EDEC"/>
<circle cx="54" cy="279" r="4" fill="#E1EDEC"/>
<circle cx="54" cy="295" r="4" fill="#E1EDEC"/>
<circle cx="54" cy="311" r="4" fill="#E1EDEC"/>
<circle cx="54" cy="327" r="4" fill="#E1EDEC"/>
<circle cx="54" cy="343" r="4" fill="#E1EDEC"/>
<circle cx="151" cy="199" r="4" fill="#E1EDEC"/>
<circle cx="151" cy="215" r="4" fill="#E1EDEC"/>
<circle cx="151" cy="231" r="4" fill="#E1EDEC"/>
<circle cx="151" cy="247" r="4" fill="#E1EDEC"/>
<circle cx="151" cy="263" r="4" fill="#E1EDEC"/>
<circle cx="151" cy="279" r="4" fill="#E1EDEC"/>
<circle cx="151" cy="295" r="4" fill="#E1EDEC"/>
<circle cx="151" cy="311" r="4" fill="#E1EDEC"/>
<circle cx="151" cy="327" r="4" fill="#E1EDEC"/>
<circle cx="151" cy="343" r="4" fill="#E1EDEC"/>
<circle cx="21" cy="199" r="4" fill="#E1EDEC"/>
<circle cx="21" cy="215" r="4" fill="#E1EDEC"/>
<circle cx="21" cy="231" r="4" fill="#E1EDEC"/>
<circle cx="21" cy="247" r="4" fill="#E1EDEC"/>
<circle cx="21" cy="263" r="4" fill="#E1EDEC"/>
<circle cx="21" cy="279" r="4" fill="#E1EDEC"/>
<circle cx="21" cy="295" r="4" fill="#E1EDEC"/>
<circle cx="21" cy="311" r="4" fill="#E1EDEC"/>
<circle cx="21" cy="327" r="4" fill="#E1EDEC"/>
<circle cx="21" cy="343" r="4" fill="#E1EDEC"/>
<circle cx="118" cy="199" r="4" fill="#E1EDEC"/>
<circle cx="118" cy="215" r="4" fill="#E1EDEC"/>
<circle cx="118" cy="231" r="4" fill="#E1EDEC"/>
<circle cx="118" cy="247" r="4" fill="#E1EDEC"/>
<circle cx="118" cy="263" r="4" fill="#E1EDEC"/>
<circle cx="118" cy="279" r="4" fill="#E1EDEC"/>
<circle cx="118" cy="295" r="4" fill="#E1EDEC"/>
<circle cx="118" cy="311" r="4" fill="#E1EDEC"/>
<circle cx="118" cy="327" r="4" fill="#E1EDEC"/>
<circle cx="118" cy="343" r="4" fill="#E1EDEC"/>
<circle cx="70" cy="199" r="4" fill="#E1EDEC"/>
<circle cx="70" cy="215" r="4" fill="#E1EDEC"/>
<circle cx="70" cy="231" r="4" fill="#E1EDEC"/>
<circle cx="70" cy="247" r="4" fill="#E1EDEC"/>
<circle cx="70" cy="263" r="4" fill="#E1EDEC"/>
<circle cx="70" cy="279" r="4" fill="#E1EDEC"/>
<circle cx="70" cy="295" r="4" fill="#E1EDEC"/>
<circle cx="70" cy="311" r="4" fill="#E1EDEC"/>
<circle cx="70" cy="327" r="4" fill="#E1EDEC"/>
<circle cx="70" cy="343" r="4" fill="#E1EDEC"/>
<circle cx="37" cy="199" r="4" fill="#E1EDEC"/>
<circle cx="37" cy="215" r="4" fill="#E1EDEC"/>
<circle cx="37" cy="231" r="4" fill="#E1EDEC"/>
<circle cx="37" cy="247" r="4" fill="#E1EDEC"/>
<circle cx="37" cy="263" r="4" fill="#E1EDEC"/>
<circle cx="37" cy="279" r="4" fill="#E1EDEC"/>
<circle cx="37" cy="295" r="4" fill="#E1EDEC"/>
<circle cx="37" cy="311" r="4" fill="#E1EDEC"/>
<circle cx="37" cy="327" r="4" fill="#E1EDEC"/>
<circle cx="37" cy="343" r="4" fill="#E1EDEC"/>
<circle cx="134" cy="199" r="4" fill="#E1EDEC"/>
<circle cx="134" cy="215" r="4" fill="#E1EDEC"/>
<circle cx="134" cy="231" r="4" fill="#E1EDEC"/>
<circle cx="134" cy="247" r="4" fill="#E1EDEC"/>
<circle cx="134" cy="263" r="4" fill="#E1EDEC"/>
<circle cx="134" cy="279" r="4" fill="#E1EDEC"/>
<circle cx="134" cy="295" r="4" fill="#E1EDEC"/>
<circle cx="134" cy="311" r="4" fill="#E1EDEC"/>
<circle cx="134" cy="327" r="4" fill="#E1EDEC"/>
<circle cx="134" cy="343" r="4" fill="#E1EDEC"/>
<circle cx="86" cy="199" r="4" fill="#E1EDEC"/>
<circle cx="86" cy="215" r="4" fill="#E1EDEC"/>
<circle cx="86" cy="231" r="4" fill="#E1EDEC"/>
<circle cx="86" cy="247" r="4" fill="#E1EDEC"/>
<circle cx="86" cy="263" r="4" fill="#E1EDEC"/>
<circle cx="86" cy="279" r="4" fill="#E1EDEC"/>
<circle cx="86" cy="295" r="4" fill="#E1EDEC"/>
<circle cx="86" cy="311" r="4" fill="#E1EDEC"/>
<circle cx="86" cy="327" r="4" fill="#E1EDEC"/>
<circle cx="86" cy="343" r="4" fill="#E1EDEC"/>
<circle cx="328" cy="7" r="4" fill="#E1EDEC"/>
<circle cx="328" cy="23" r="4" fill="#E1EDEC"/>
<circle cx="328" cy="39" r="4" fill="#E1EDEC"/>
<circle cx="328" cy="55" r="4" fill="#E1EDEC"/>
<circle cx="328" cy="71" r="4" fill="#E1EDEC"/>
<circle cx="425" cy="7" r="4" fill="#E1EDEC"/>
<circle cx="425" cy="23" r="4" fill="#E1EDEC"/>
<circle cx="425" cy="39" r="4" fill="#E1EDEC"/>
<circle cx="425" cy="55" r="4" fill="#E1EDEC"/>
<circle cx="425" cy="71" r="4" fill="#E1EDEC"/>
<circle cx="377" cy="7" r="4" fill="#E1EDEC"/>
<circle cx="377" cy="23" r="4" fill="#E1EDEC"/>
<circle cx="377" cy="39" r="4" fill="#E1EDEC"/>
<circle cx="377" cy="55" r="4" fill="#E1EDEC"/>
<circle cx="377" cy="71" r="4" fill="#E1EDEC"/>
<circle cx="344" cy="7" r="4" fill="#E1EDEC"/>
<circle cx="344" cy="23" r="4" fill="#E1EDEC"/>
<circle cx="344" cy="39" r="4" fill="#E1EDEC"/>
<circle cx="344" cy="55" r="4" fill="#E1EDEC"/>
<circle cx="344" cy="71" r="4" fill="#E1EDEC"/>
<circle cx="441" cy="7" r="4" fill="#E1EDEC"/>
<circle cx="441" cy="23" r="4" fill="#E1EDEC"/>
<circle cx="441" cy="39" r="4" fill="#E1EDEC"/>
<circle cx="441" cy="55" r="4" fill="#E1EDEC"/>
<circle cx="441" cy="71" r="4" fill="#E1EDEC"/>
<circle cx="393" cy="7" r="4" fill="#E1EDEC"/>
<circle cx="393" cy="23" r="4" fill="#E1EDEC"/>
<circle cx="393" cy="39" r="4" fill="#E1EDEC"/>
<circle cx="393" cy="55" r="4" fill="#E1EDEC"/>
<circle cx="393" cy="71" r="4" fill="#E1EDEC"/>
<circle cx="360" cy="7" r="4" fill="#E1EDEC"/>
<circle cx="360" cy="23" r="4" fill="#E1EDEC"/>
<circle cx="360" cy="39" r="4" fill="#E1EDEC"/>
<circle cx="360" cy="55" r="4" fill="#E1EDEC"/>
<circle cx="360" cy="71" r="4" fill="#E1EDEC"/>
<circle cx="409" cy="7" r="4" fill="#E1EDEC"/>
<circle cx="409" cy="23" r="4" fill="#E1EDEC"/>
<circle cx="409" cy="39" r="4" fill="#E1EDEC"/>
<circle cx="409" cy="55" r="4" fill="#E1EDEC"/>
<circle cx="409" cy="71" r="4" fill="#E1EDEC"/>
<circle cx="166" cy="7" r="4" fill="#E1EDEC"/>
<circle cx="166" cy="23" r="4" fill="#E1EDEC"/>
<circle cx="166" cy="39" r="4" fill="#E1EDEC"/>
<circle cx="166" cy="55" r="4" fill="#E1EDEC"/>
<circle cx="166" cy="71" r="4" fill="#E1EDEC"/>
<circle cx="263" cy="7" r="4" fill="#E1EDEC"/>
<circle cx="263" cy="23" r="4" fill="#E1EDEC"/>
<circle cx="263" cy="39" r="4" fill="#E1EDEC"/>
<circle cx="263" cy="55" r="4" fill="#E1EDEC"/>
<circle cx="263" cy="71" r="4" fill="#E1EDEC"/>
<circle cx="215" cy="7" r="4" fill="#E1EDEC"/>
<circle cx="215" cy="23" r="4" fill="#E1EDEC"/>
<circle cx="215" cy="39" r="4" fill="#E1EDEC"/>
<circle cx="215" cy="55" r="4" fill="#E1EDEC"/>
<circle cx="215" cy="71" r="4" fill="#E1EDEC"/>
<circle cx="312" cy="7" r="4" fill="#E1EDEC"/>
<circle cx="312" cy="23" r="4" fill="#E1EDEC"/>
<circle cx="312" cy="39" r="4" fill="#E1EDEC"/>
<circle cx="312" cy="55" r="4" fill="#E1EDEC"/>
<circle cx="312" cy="71" r="4" fill="#E1EDEC"/>
<circle cx="182" cy="7" r="4" fill="#E1EDEC"/>
<circle cx="182" cy="23" r="4" fill="#E1EDEC"/>
<circle cx="182" cy="39" r="4" fill="#E1EDEC"/>
<circle cx="182" cy="55" r="4" fill="#E1EDEC"/>
<circle cx="182" cy="71" r="4" fill="#E1EDEC"/>
<circle cx="279" cy="7" r="4" fill="#E1EDEC"/>
<circle cx="279" cy="23" r="4" fill="#E1EDEC"/>
<circle cx="279" cy="39" r="4" fill="#E1EDEC"/>
<circle cx="279" cy="55" r="4" fill="#E1EDEC"/>
<circle cx="279" cy="71" r="4" fill="#E1EDEC"/>
<circle cx="231" cy="7" r="4" fill="#E1EDEC"/>
<circle cx="231" cy="23" r="4" fill="#E1EDEC"/>
<circle cx="231" cy="39" r="4" fill="#E1EDEC"/>
<circle cx="231" cy="55" r="4" fill="#E1EDEC"/>
<circle cx="231" cy="71" r="4" fill="#E1EDEC"/>
<circle cx="198" cy="7" r="4" fill="#E1EDEC"/>
<circle cx="198" cy="23" r="4" fill="#E1EDEC"/>
<circle cx="198" cy="39" r="4" fill="#E1EDEC"/>
<circle cx="198" cy="55" r="4" fill="#E1EDEC"/>
<circle cx="198" cy="71" r="4" fill="#E1EDEC"/>
<circle cx="295" cy="7" r="4" fill="#E1EDEC"/>
<circle cx="295" cy="23" r="4" fill="#E1EDEC"/>
<circle cx="295" cy="39" r="4" fill="#E1EDEC"/>
<circle cx="295" cy="55" r="4" fill="#E1EDEC"/>
<circle cx="295" cy="71" r="4" fill="#E1EDEC"/>
<circle cx="247" cy="7" r="4" fill="#E1EDEC"/>
<circle cx="247" cy="23" r="4" fill="#E1EDEC"/>
<circle cx="247" cy="39" r="4" fill="#E1EDEC"/>
<circle cx="247" cy="55" r="4" fill="#E1EDEC"/>
<circle cx="247" cy="71" r="4" fill="#E1EDEC"/>
<circle cx="69" cy="7" r="4" fill="#E1EDEC"/>
<circle cx="69" cy="23" r="4" fill="#E1EDEC"/>
<circle cx="69" cy="39" r="4" fill="#E1EDEC"/>
<circle cx="69" cy="55" r="4" fill="#E1EDEC"/>
<circle cx="69" cy="71" r="4" fill="#E1EDEC"/>
<circle cx="166" cy="7" r="4" fill="#E1EDEC"/>
<circle cx="166" cy="23" r="4" fill="#E1EDEC"/>
<circle cx="166" cy="39" r="4" fill="#E1EDEC"/>
<circle cx="166" cy="55" r="4" fill="#E1EDEC"/>
<circle cx="166" cy="71" r="4" fill="#E1EDEC"/>
<circle cx="118" cy="7" r="4" fill="#E1EDEC"/>
<circle cx="118" cy="23" r="4" fill="#E1EDEC"/>
<circle cx="118" cy="39" r="4" fill="#E1EDEC"/>
<circle cx="118" cy="55" r="4" fill="#E1EDEC"/>
<circle cx="118" cy="71" r="4" fill="#E1EDEC"/>
<circle cx="215" cy="7" r="4" fill="#E1EDEC"/>
<circle cx="215" cy="23" r="4" fill="#E1EDEC"/>
<circle cx="215" cy="39" r="4" fill="#E1EDEC"/>
<circle cx="215" cy="55" r="4" fill="#E1EDEC"/>
<circle cx="215" cy="71" r="4" fill="#E1EDEC"/>
<circle cx="85" cy="7" r="4" fill="#E1EDEC"/>
<circle cx="85" cy="23" r="4" fill="#E1EDEC"/>
<circle cx="85" cy="39" r="4" fill="#E1EDEC"/>
<circle cx="85" cy="55" r="4" fill="#E1EDEC"/>
<circle cx="85" cy="71" r="4" fill="#E1EDEC"/>
<circle cx="182" cy="7" r="4" fill="#E1EDEC"/>
<circle cx="182" cy="23" r="4" fill="#E1EDEC"/>
<circle cx="182" cy="39" r="4" fill="#E1EDEC"/>
<circle cx="182" cy="55" r="4" fill="#E1EDEC"/>
<circle cx="182" cy="71" r="4" fill="#E1EDEC"/>
<circle cx="134" cy="7" r="4" fill="#E1EDEC"/>
<circle cx="134" cy="23" r="4" fill="#E1EDEC"/>
<circle cx="134" cy="39" r="4" fill="#E1EDEC"/>
<circle cx="134" cy="55" r="4" fill="#E1EDEC"/>
<circle cx="134" cy="71" r="4" fill="#E1EDEC"/>
<circle cx="101" cy="7" r="4" fill="#E1EDEC"/>
<circle cx="101" cy="23" r="4" fill="#E1EDEC"/>
<circle cx="101" cy="39" r="4" fill="#E1EDEC"/>
<circle cx="101" cy="55" r="4" fill="#E1EDEC"/>
<circle cx="101" cy="71" r="4" fill="#E1EDEC"/>
<circle cx="198" cy="7" r="4" fill="#E1EDEC"/>
<circle cx="198" cy="23" r="4" fill="#E1EDEC"/>
<circle cx="198" cy="39" r="4" fill="#E1EDEC"/>
<circle cx="198" cy="55" r="4" fill="#E1EDEC"/>
<circle cx="198" cy="71" r="4" fill="#E1EDEC"/>
<circle cx="150" cy="7" r="4" fill="#E1EDEC"/>
<circle cx="150" cy="23" r="4" fill="#E1EDEC"/>
<circle cx="150" cy="39" r="4" fill="#E1EDEC"/>
<circle cx="150" cy="55" r="4" fill="#E1EDEC"/>
<circle cx="150" cy="71" r="4" fill="#E1EDEC"/>
</svg>
