<svg xmlns="http://www.w3.org/2000/svg" version="1.1" xmlns:xlink="http://www.w3.org/1999/xlink" width="1000" height="1000"><g clip-path="url(#SvgjsClipPath1014)"><rect width="1000" height="1000" fill="#ffffff"></rect><g transform="matrix(10.76923076923077,0,0,10.76923076923077,150,284.6153846153846)"><svg xmlns="http://www.w3.org/2000/svg" version="1.1" xmlns:xlink="http://www.w3.org/1999/xlink" width="65" height="40"><svg width="65" height="40" viewBox="0 0 65 40" fill="none" xmlns="http://www.w3.org/2000/svg">
<path d="M43.2072 0L32.4211 7.88354L21.626 0L0 15.794V40H12.551V34.6876H5.31243V18.4994L21.626 6.58455L27.9059 11.1713L21.5722 15.794V40H30.1008H36.6853H43.252V15.794L36.9183 11.1713L43.1982 6.58455L59.5118 18.4994V34.6876H51.6909V40H64.8421V15.794L43.2072 0ZM37.9395 18.4994V34.6876H36.6943H30.1097H26.8936V18.4994L32.4121 14.4681L37.9395 18.4994Z" fill="#262D2D"></path>
</svg></svg></g></g><defs><clipPath id="SvgjsClipPath1014"><rect width="1000" height="1000" x="0" y="0" rx="350" ry="350"></rect></clipPath></defs></svg>