<svg width="201" height="40" viewBox="0 0 201 40" fill="none" xmlns="http://www.w3.org/2000/svg">
<path d="M43.2072 0L32.4211 7.88354L21.626 0L0 15.794V40H12.551V34.6876H5.31243V18.4994L21.626 6.58455L27.9059 11.1713L21.5722 15.794V40H30.1008H36.6853H43.252V15.794L36.9183 11.1713L43.1982 6.58455L59.5118 18.4994V34.6876H51.6909V40H64.8421V15.794L43.2072 0ZM37.9395 18.4994V34.6876H36.6943H30.1097H26.8936V18.4994L32.4121 14.4681L37.9395 18.4994Z" fill="white"/>
<path d="M80.8423 27.8034L82.5828 27.5769V14.0312L80.9304 13.7141V12.3323H84.125C84.4041 12.3323 84.7125 12.3248 85.0503 12.3097C85.3882 12.2946 85.6452 12.2795 85.8214 12.2644C86.5852 12.204 87.2168 12.1738 87.7162 12.1738C89.229 12.1738 90.4408 12.3323 91.3514 12.6494C92.262 12.9666 92.923 13.4498 93.3342 14.0991C93.7455 14.7485 93.9511 15.6017 93.9511 16.6588C93.9511 17.7008 93.6794 18.6672 93.136 19.5582C92.5925 20.4492 91.8067 21.0608 90.7786 21.393C91.3661 21.6497 91.8875 22.1178 92.3428 22.7974C92.7981 23.4769 93.2828 24.3603 93.7969 25.4476C94.1641 26.1876 94.4432 26.7237 94.6341 27.0559C94.8397 27.373 95.038 27.5542 95.229 27.5995L95.956 27.826V29.1625H92.2106C91.9756 29.1625 91.7259 28.9209 91.4616 28.4376C91.2119 27.9393 90.8814 27.1616 90.4701 26.1045C89.9854 24.8662 89.5668 23.8998 89.2143 23.2051C88.8618 22.5105 88.4873 22.0801 88.0907 21.914H85.8214V27.5769L87.8484 27.8034V29.1625H80.8423V27.8034ZM87.8484 20.5322C88.6856 20.5322 89.3392 20.2226 89.8092 19.6035C90.2792 18.9843 90.5142 18.0556 90.5142 16.8173C90.5142 15.715 90.2792 14.8995 89.8092 14.371C89.3539 13.8424 88.5607 13.5782 87.4298 13.5782C87.0185 13.5782 86.666 13.6008 86.3722 13.6461C86.0932 13.6763 85.9096 13.6914 85.8214 13.6914V20.4869C85.9977 20.5171 86.4236 20.5322 87.0993 20.5322H87.8484Z" fill="white"/>
<path d="M102.405 29.4117C100.466 29.4117 99.0192 28.8303 98.0645 27.6675C97.1245 26.4896 96.6545 24.8889 96.6545 22.8653C96.6545 21.5062 96.8968 20.3283 97.3815 19.3317C97.8809 18.335 98.5786 17.5724 99.4745 17.0439C100.37 16.5153 101.406 16.2511 102.581 16.2511C104.05 16.2511 105.181 16.6512 105.974 17.4516C106.767 18.2368 107.178 19.3619 107.208 20.8267C107.208 21.8234 107.149 22.5633 107.031 23.0465H99.8711C99.9299 24.4207 100.246 25.4929 100.818 26.2631C101.391 27.0181 102.206 27.3957 103.264 27.3957C103.837 27.3957 104.424 27.2975 105.027 27.1012C105.643 26.9049 106.128 26.6708 106.481 26.399L107.031 27.6448C106.635 28.0828 105.989 28.4905 105.093 28.868C104.211 29.2305 103.315 29.4117 102.405 29.4117ZM104.123 21.6874C104.153 21.2646 104.167 20.9399 104.167 20.7134C104.167 18.705 103.514 17.7008 102.206 17.7008C101.487 17.7008 100.929 17.9952 100.532 18.5842C100.135 19.1731 99.9152 20.2075 99.8711 21.6874H104.123Z" fill="white"/>
<path d="M108.724 25.6288C108.724 24.2546 109.392 23.2202 110.728 22.5256C112.08 21.8309 113.82 21.476 115.95 21.4609V20.9399C115.95 20.3208 115.884 19.8376 115.752 19.4902C115.634 19.1429 115.406 18.8862 115.069 18.7201C114.746 18.5389 114.268 18.4483 113.637 18.4483C112.917 18.4483 112.271 18.5464 111.698 18.7427C111.125 18.9239 110.53 19.1656 109.913 19.4676L109.23 18.0179C109.451 17.8216 109.818 17.5875 110.332 17.3157C110.861 17.0439 111.485 16.8098 112.205 16.6135C112.924 16.4021 113.666 16.2964 114.43 16.2964C115.561 16.2964 116.442 16.4474 117.074 16.7494C117.72 17.0514 118.182 17.5346 118.462 18.1991C118.741 18.8635 118.88 19.7545 118.88 20.872V27.8034H120.07V29.0719C119.776 29.1474 119.357 29.2229 118.814 29.2984C118.271 29.3739 117.793 29.4117 117.382 29.4117C116.883 29.4117 116.545 29.3362 116.369 29.1851C116.207 29.0341 116.126 28.7246 116.126 28.2564V27.6448C115.73 28.0979 115.216 28.5056 114.584 28.868C113.952 29.2305 113.24 29.4117 112.447 29.4117C111.771 29.4117 111.147 29.2682 110.574 28.9813C110.016 28.6793 109.568 28.2489 109.23 27.6901C108.892 27.1163 108.724 26.4292 108.724 25.6288ZM113.857 27.5316C114.165 27.5316 114.518 27.441 114.914 27.2598C115.311 27.0634 115.656 26.8294 115.95 26.5576V22.8427C114.628 22.8427 113.637 23.0768 112.976 23.5449C112.329 23.9979 112.006 24.5869 112.006 25.3117C112.006 26.0366 112.168 26.5878 112.491 26.9653C112.829 27.3428 113.284 27.5316 113.857 27.5316Z" fill="white"/>
<path d="M122.723 12.6041L121.092 12.3097V11.0865L125.168 10.5881H125.212L125.807 11.0185V27.6222L127.415 27.8034V29.1625H121.18V27.8034L122.723 27.5995V12.6041Z" fill="white"/>
<path d="M135.769 14.0312L134.006 13.7367V12.3323H145.749L146.035 16.1378H144.493L143.766 13.8953L139.007 13.6914V19.7847L142.07 19.7168L142.422 17.8593H143.832V23.341H142.422L142.07 21.393L139.007 21.325V27.7128L144.339 27.441L145.617 24.5416L147.269 25.0172L146.696 29.1625H134.028V27.8034L135.769 27.5769V14.0312Z" fill="white"/>
<path d="M151.043 27.3051C151.16 27.4863 151.424 27.6599 151.836 27.826C152.262 27.9771 152.688 28.0526 153.114 28.0526C153.804 28.0526 154.318 27.9091 154.656 27.6222C155.008 27.3202 155.185 26.9275 155.185 26.4443C155.185 25.946 154.972 25.5458 154.546 25.2438C154.12 24.9266 153.4 24.5416 152.387 24.0885L151.77 23.8167C150.756 23.3788 150 22.8502 149.5 22.2311C149.001 21.6119 148.751 20.8116 148.751 19.83C148.751 19.1505 148.95 18.5464 149.346 18.0179C149.743 17.4742 150.301 17.0514 151.021 16.7494C151.74 16.4474 152.57 16.2964 153.51 16.2964C154.2 16.2964 154.788 16.3417 155.273 16.4323C155.772 16.5229 156.293 16.6437 156.837 16.7947C157.131 16.9004 157.351 16.9608 157.498 16.9759V19.9433H155.757L155.251 18.2217C155.163 18.0707 154.964 17.9348 154.656 17.814C154.347 17.6932 153.995 17.6328 153.598 17.6328C152.996 17.6328 152.511 17.7687 152.144 18.0405C151.792 18.2972 151.615 18.6597 151.615 19.1278C151.615 19.5506 151.74 19.9055 151.99 20.1924C152.24 20.4643 152.511 20.6757 152.805 20.8267C153.099 20.9777 153.642 21.2269 154.435 21.5742C155.229 21.9215 155.882 22.2537 156.396 22.5709C156.925 22.888 157.358 23.3033 157.696 23.8167C158.049 24.315 158.225 24.9266 158.225 25.6515C158.225 26.769 157.799 27.675 156.947 28.3697C156.095 29.0643 154.869 29.4117 153.268 29.4117C152.519 29.4117 151.843 29.3437 151.241 29.2078C150.653 29.0719 149.97 28.8907 149.192 28.6642L148.707 28.5056V25.5156H150.536L151.043 27.3051Z" fill="white"/>
<path d="M163.723 29.3664C162.798 29.3664 162.115 29.1474 161.674 28.7095C161.233 28.2715 161.013 27.5769 161.013 26.6255V18.3124H159.581V17.1345C159.699 17.0892 159.912 17.0137 160.22 16.9079C160.528 16.7871 160.763 16.689 160.925 16.6135C161.175 16.4172 161.388 16.0774 161.564 15.5942C161.696 15.277 161.938 14.4918 162.291 13.2384H164.054L164.142 16.5682H167.512V18.3124H164.164V24.6775C164.164 25.5231 164.186 26.1196 164.23 26.4669C164.274 26.8143 164.369 27.0408 164.516 27.1465C164.663 27.2371 164.92 27.2824 165.287 27.2824C165.654 27.2824 166.036 27.2447 166.433 27.1692C166.83 27.0785 167.16 26.9728 167.424 26.852L167.843 28.1205C167.432 28.4376 166.83 28.7246 166.036 28.9813C165.243 29.238 164.472 29.3664 163.723 29.3664Z" fill="white"/>
<path d="M168.773 25.6288C168.773 24.2546 169.441 23.2202 170.778 22.5256C172.129 21.8309 173.869 21.476 175.999 21.4609V20.9399C175.999 20.3208 175.933 19.8376 175.801 19.4902C175.683 19.1429 175.456 18.8862 175.118 18.7201C174.795 18.5389 174.317 18.4483 173.686 18.4483C172.966 18.4483 172.32 18.5464 171.747 18.7427C171.174 18.9239 170.579 19.1656 169.962 19.4676L169.28 18.0179C169.5 17.8216 169.867 17.5875 170.381 17.3157C170.91 17.0439 171.534 16.8098 172.254 16.6135C172.973 16.4021 173.715 16.2964 174.479 16.2964C175.61 16.2964 176.491 16.4474 177.123 16.7494C177.769 17.0514 178.232 17.5346 178.511 18.1991C178.79 18.8635 178.929 19.7545 178.929 20.872V27.8034H180.119V29.0719C179.825 29.1474 179.407 29.2229 178.863 29.2984C178.32 29.3739 177.842 29.4117 177.431 29.4117C176.932 29.4117 176.594 29.3362 176.418 29.1851C176.256 29.0341 176.175 28.7246 176.175 28.2564V27.6448C175.779 28.0979 175.265 28.5056 174.633 28.868C174.002 29.2305 173.289 29.4117 172.496 29.4117C171.82 29.4117 171.196 29.2682 170.623 28.9813C170.065 28.6793 169.617 28.2489 169.28 27.6901C168.942 27.1163 168.773 26.4292 168.773 25.6288ZM173.906 27.5316C174.215 27.5316 174.567 27.441 174.964 27.2598C175.36 27.0634 175.705 26.8294 175.999 26.5576V22.8427C174.677 22.8427 173.686 23.0768 173.025 23.5449C172.379 23.9979 172.055 24.5869 172.055 25.3117C172.055 26.0366 172.217 26.5878 172.54 26.9653C172.878 27.3428 173.333 27.5316 173.906 27.5316Z" fill="white"/>
<path d="M185.195 29.3664C184.27 29.3664 183.587 29.1474 183.146 28.7095C182.706 28.2715 182.485 27.5769 182.485 26.6255V18.3124H181.053V17.1345C181.171 17.0892 181.384 17.0137 181.692 16.9079C182.001 16.7871 182.236 16.689 182.397 16.6135C182.647 16.4172 182.86 16.0774 183.036 15.5942C183.168 15.277 183.411 14.4918 183.763 13.2384H185.526L185.614 16.5682H188.985V18.3124H185.636V24.6775C185.636 25.5231 185.658 26.1196 185.702 26.4669C185.746 26.8143 185.842 27.0408 185.988 27.1465C186.135 27.2371 186.392 27.2824 186.76 27.2824C187.127 27.2824 187.509 27.2447 187.905 27.1692C188.302 27.0785 188.632 26.9728 188.897 26.852L189.315 28.1205C188.904 28.4376 188.302 28.7246 187.509 28.9813C186.715 29.238 185.944 29.3664 185.195 29.3664Z" fill="white"/>
<path d="M196.039 29.4117C194.101 29.4117 192.654 28.8303 191.699 27.6675C190.759 26.4896 190.289 24.8889 190.289 22.8653C190.289 21.5062 190.531 20.3283 191.016 19.3317C191.516 18.335 192.213 17.5724 193.109 17.0439C194.005 16.5153 195.041 16.2511 196.216 16.2511C197.684 16.2511 198.815 16.6512 199.609 17.4516C200.402 18.2368 200.813 19.3619 200.842 20.8267C200.842 21.8234 200.784 22.5633 200.666 23.0465H193.506C193.564 24.4207 193.88 25.4929 194.453 26.2631C195.026 27.0181 195.841 27.3957 196.899 27.3957C197.471 27.3957 198.059 27.2975 198.661 27.1012C199.278 26.9049 199.763 26.6708 200.115 26.399L200.666 27.6448C200.269 28.0828 199.623 28.4905 198.727 28.868C197.846 29.2305 196.95 29.4117 196.039 29.4117ZM197.758 21.6874C197.787 21.2646 197.802 20.9399 197.802 20.7134C197.802 18.705 197.148 17.7008 195.841 17.7008C195.121 17.7008 194.563 17.9952 194.167 18.5842C193.77 19.1731 193.55 20.2075 193.506 21.6874H197.758Z" fill="white"/>
</svg>
