<svg width="121" height="20" viewBox="0 0 121 20" fill="none" xmlns="http://www.w3.org/2000/svg">
<path d="M0.842285 17.8034L2.58279 17.5769V4.03119L0.930412 3.71406V2.33231H4.125C4.40407 2.33231 4.71252 2.32476 5.05034 2.30966C5.38815 2.29456 5.64519 2.27946 5.82144 2.26436C6.58521 2.20395 7.21678 2.17375 7.71617 2.17375C9.22901 2.17375 10.4408 2.33231 11.3514 2.64944C12.262 2.96656 12.923 3.4498 13.3342 4.09914C13.7455 4.74849 13.9511 5.6017 13.9511 6.65878C13.9511 7.70076 13.6794 8.66723 13.136 9.55819C12.5925 10.4492 11.8067 11.0608 10.7786 11.393C11.3661 11.6497 11.8875 12.1178 12.3428 12.7974C12.7981 13.4769 13.2828 14.3603 13.7969 15.4476C14.1641 16.1876 14.4432 16.7237 14.6341 17.0559C14.8397 17.373 15.038 17.5542 15.229 17.5995L15.956 17.826V19.1625H12.2106C11.9756 19.1625 11.7259 18.9209 11.4616 18.4376C11.2119 17.9393 10.8814 17.1616 10.4701 16.1045C9.98543 14.8662 9.56683 13.8998 9.21432 13.2051C8.86182 12.5105 8.48728 12.0801 8.09071 11.914H5.82144V17.5769L7.84836 17.8034V19.1625H0.842285V17.8034ZM7.84836 10.5322C8.68556 10.5322 9.33917 10.2226 9.80918 9.6035C10.2792 8.98435 10.5142 8.05563 10.5142 6.81734C10.5142 5.71496 10.2792 4.8995 9.80918 4.37096C9.35386 3.84242 8.56072 3.57815 7.42976 3.57815C7.0185 3.57815 6.66599 3.60081 6.37224 3.64611C6.09317 3.67631 5.90957 3.69141 5.82144 3.69141V10.4869C5.9977 10.5171 6.42364 10.5322 7.09928 10.5322H7.84836Z" fill="#262D2D"/>
<path d="M22.4048 19.4117C20.466 19.4117 19.0192 18.8303 18.0645 17.6675C17.1245 16.4896 16.6545 14.8889 16.6545 12.8653C16.6545 11.5062 16.8968 10.3283 17.3815 9.33168C17.8809 8.335 18.5786 7.5724 19.4745 7.04386C20.3705 6.51532 21.406 6.25105 22.581 6.25105C24.0498 6.25105 25.1807 6.65123 25.9739 7.45159C26.767 8.23685 27.1783 9.36188 27.2077 10.8267C27.2077 11.8234 27.1489 12.5633 27.0314 13.0465H19.8711C19.9299 14.4207 20.2457 15.4929 20.8185 16.2631C21.3913 17.0181 22.2065 17.3957 23.264 17.3957C23.8368 17.3957 24.4243 17.2975 25.0265 17.1012C25.6434 16.9049 26.1281 16.6708 26.4806 16.399L27.0314 17.6448C26.6348 18.0828 25.9886 18.4905 25.0926 18.868C24.2114 19.2304 23.3154 19.4117 22.4048 19.4117ZM24.1232 11.6874C24.1526 11.2646 24.1673 10.9399 24.1673 10.7134C24.1673 8.70498 23.5137 7.70076 22.2065 7.70076C21.4868 7.70076 20.9286 7.99523 20.5321 8.58417C20.1355 9.17311 19.9152 10.2075 19.8711 11.6874H24.1232Z" fill="#262D2D"/>
<path d="M28.7235 15.6288C28.7235 14.2546 29.3918 13.2202 30.7284 12.5256C32.0797 11.8309 33.8202 11.476 35.9499 11.4609V10.9399C35.9499 10.3208 35.8838 9.83756 35.7516 9.49024C35.6341 9.14291 35.4065 8.88619 35.0687 8.72008C34.7455 8.53887 34.2682 8.44826 33.6366 8.44826C32.9169 8.44826 32.2706 8.54642 31.6978 8.74273C31.125 8.92395 30.5301 9.16556 29.9133 9.46759L29.2303 8.01788C29.4506 7.82157 29.8178 7.5875 30.3319 7.31568C30.8606 7.04386 31.4848 6.80979 32.2045 6.61348C32.9243 6.40206 33.666 6.29635 34.4297 6.29635C35.5607 6.29635 36.442 6.44737 37.0736 6.74939C37.7198 7.05141 38.1825 7.53464 38.4615 8.19909C38.7406 8.86354 38.8801 9.75451 38.8801 10.872V17.8034H40.0699V19.0719C39.7761 19.1474 39.3575 19.2229 38.8141 19.2984C38.2706 19.3739 37.7933 19.4117 37.382 19.4117C36.8826 19.4117 36.5448 19.3362 36.3685 19.1851C36.207 19.0341 36.1262 18.7246 36.1262 18.2564V17.6448C35.7296 18.0979 35.2155 18.5056 34.584 18.868C33.9524 19.2304 33.24 19.4117 32.4469 19.4117C31.7713 19.4117 31.147 19.2682 30.5742 18.9813C30.0161 18.6793 29.5681 18.2489 29.2303 17.6901C28.8925 17.1163 28.7235 16.4292 28.7235 15.6288ZM33.8569 17.5316C34.1654 17.5316 34.5179 17.441 34.9144 17.2598C35.311 17.0634 35.6562 16.8294 35.9499 16.5576V12.8427C34.628 12.8427 33.6366 13.0767 32.9757 13.5449C32.3294 13.9979 32.0063 14.5869 32.0063 15.3117C32.0063 16.0366 32.1678 16.5878 32.491 16.9653C32.8288 17.3428 33.2841 17.5316 33.8569 17.5316Z" fill="#262D2D"/>
<path d="M42.7226 2.60413L41.0923 2.30966V1.08647L45.1681 0.588135H45.2122L45.807 1.01852V17.6222L47.4154 17.8034V19.1625H41.1804V17.8034L42.7226 17.5995V2.60413Z" fill="#262D2D"/>
<path d="M55.7686 4.03119L54.0061 3.73672V2.33231H65.749L66.0354 6.13779H64.4932L63.7661 3.89528L59.0073 3.69141V9.78471L62.0697 9.71675L62.4222 7.85932H63.8322V13.341H62.4222L62.0697 11.393L59.0073 11.325V17.7128L64.339 17.441L65.6168 14.5416L67.2692 15.0172L66.6963 19.1625H54.0281V17.8034L55.7686 17.5769V4.03119Z" fill="#262D2D"/>
<path d="M71.0426 17.3051C71.1601 17.4863 71.4245 17.6599 71.8357 17.826C72.2617 17.9771 72.6876 18.0526 73.1136 18.0526C73.8039 18.0526 74.318 17.9091 74.6558 17.6222C75.0083 17.3202 75.1846 16.9275 75.1846 16.4443C75.1846 15.946 74.9716 15.5458 74.5456 15.2438C74.1197 14.9266 73.4 14.5416 72.3865 14.0885L71.7697 13.8167C70.7562 13.3788 69.9998 12.8502 69.5004 12.2311C69.001 11.6119 68.7513 10.8116 68.7513 9.83001C68.7513 9.15046 68.9496 8.54642 69.3462 8.01788C69.7427 7.47424 70.3009 7.05141 71.0206 6.74939C71.7403 6.44737 72.5701 6.29635 73.5102 6.29635C74.2005 6.29635 74.788 6.34166 75.2727 6.43226C75.7721 6.52287 76.2935 6.64368 76.8369 6.79469C77.1307 6.9004 77.351 6.9608 77.4979 6.9759V9.94327H75.7574L75.2507 8.22175C75.1625 8.07073 74.9642 7.93482 74.6558 7.81401C74.3474 7.69321 73.9949 7.6328 73.5983 7.6328C72.9961 7.6328 72.5114 7.76871 72.1442 8.04053C71.7917 8.29725 71.6154 8.65968 71.6154 9.12781C71.6154 9.55064 71.7403 9.90552 71.99 10.1924C72.2397 10.4643 72.5114 10.6757 72.8051 10.8267C73.0989 10.9777 73.6423 11.2269 74.4355 11.5742C75.2286 11.9215 75.8822 12.2537 76.3963 12.5709C76.9251 12.888 77.3584 13.3033 77.6962 13.8167C78.0487 14.315 78.2249 14.9266 78.2249 15.6515C78.2249 16.769 77.799 17.675 76.9471 18.3697C76.0952 19.0643 74.8688 19.4117 73.2678 19.4117C72.5187 19.4117 71.8431 19.3437 71.2409 19.2078C70.6534 19.0719 69.9704 18.8907 69.1919 18.6642L68.7073 18.5056V15.5156H70.5359L71.0426 17.3051Z" fill="#262D2D"/>
<path d="M83.723 19.3664C82.7977 19.3664 82.1147 19.1474 81.6741 18.7095C81.2335 18.2715 81.0132 17.5769 81.0132 16.6255V8.31235H79.5811V7.13447C79.6986 7.08916 79.9116 7.01366 80.22 6.90795C80.5285 6.78714 80.7635 6.68898 80.925 6.61348C81.1747 6.41716 81.3877 6.07739 81.5639 5.59415C81.6961 5.27703 81.9385 4.49177 82.291 3.23838H84.0535L84.1417 6.56817H87.5125V8.31235H84.1637V14.6775C84.1637 15.5231 84.1857 16.1196 84.2298 16.4669C84.2738 16.8143 84.3693 17.0408 84.5162 17.1465C84.6631 17.2371 84.9201 17.2824 85.2873 17.2824C85.6545 17.2824 86.0364 17.2447 86.4329 17.1692C86.8295 17.0785 87.16 16.9728 87.4244 16.852L87.843 18.1205C87.4317 18.4376 86.8295 18.7246 86.0364 18.9813C85.2432 19.238 84.4721 19.3664 83.723 19.3664Z" fill="#262D2D"/>
<path d="M88.7728 15.6288C88.7728 14.2546 89.4411 13.2202 90.7776 12.5256C92.1289 11.8309 93.8694 11.476 95.9992 11.4609V10.9399C95.9992 10.3208 95.9331 9.83756 95.8009 9.49024C95.6834 9.14291 95.4557 8.88619 95.1179 8.72008C94.7948 8.53887 94.3174 8.44826 93.6858 8.44826C92.9661 8.44826 92.3199 8.54642 91.747 8.74273C91.1742 8.92395 90.5794 9.16556 89.9625 9.46759L89.2795 8.01788C89.4998 7.82157 89.867 7.5875 90.3811 7.31568C90.9098 7.04386 91.5341 6.80979 92.2538 6.61348C92.9735 6.40206 93.7152 6.29635 94.479 6.29635C95.6099 6.29635 96.4912 6.44737 97.1228 6.74939C97.769 7.05141 98.2317 7.53464 98.5108 8.19909C98.7898 8.86354 98.9294 9.75451 98.9294 10.872V17.8034H100.119V19.0719C99.8253 19.1474 99.4067 19.2229 98.8633 19.2984C98.3198 19.3739 97.8425 19.4117 97.4312 19.4117C96.9318 19.4117 96.594 19.3362 96.4178 19.1851C96.2562 19.0341 96.1754 18.7246 96.1754 18.2564V17.6448C95.7788 18.0979 95.2648 18.5056 94.6332 18.868C94.0016 19.2304 93.2893 19.4117 92.4961 19.4117C91.8205 19.4117 91.1963 19.2682 90.6234 18.9813C90.0653 18.6793 89.6173 18.2489 89.2795 17.6901C88.9417 17.1163 88.7728 16.4292 88.7728 15.6288ZM93.9062 17.5316C94.2146 17.5316 94.5671 17.441 94.9637 17.2598C95.3602 17.0634 95.7054 16.8294 95.9992 16.5576V12.8427C94.6773 12.8427 93.6858 13.0767 93.0249 13.5449C92.3786 13.9979 92.0555 14.5869 92.0555 15.3117C92.0555 16.0366 92.217 16.5878 92.5402 16.9653C92.878 17.3428 93.3333 17.5316 93.9062 17.5316Z" fill="#262D2D"/>
<path d="M105.195 19.3664C104.27 19.3664 103.587 19.1474 103.146 18.7095C102.706 18.2715 102.485 17.5769 102.485 16.6255V8.31235H101.053V7.13447C101.171 7.08916 101.384 7.01366 101.692 6.90795C102.001 6.78714 102.236 6.68898 102.397 6.61348C102.647 6.41716 102.86 6.07739 103.036 5.59415C103.168 5.27703 103.411 4.49177 103.763 3.23838H105.526L105.614 6.56817H108.985V8.31235H105.636V14.6775C105.636 15.5231 105.658 16.1196 105.702 16.4669C105.746 16.8143 105.842 17.0408 105.988 17.1465C106.135 17.2371 106.392 17.2824 106.76 17.2824C107.127 17.2824 107.509 17.2447 107.905 17.1692C108.302 17.0785 108.632 16.9728 108.897 16.852L109.315 18.1205C108.904 18.4376 108.302 18.7246 107.509 18.9813C106.715 19.238 105.944 19.3664 105.195 19.3664Z" fill="#262D2D"/>
<path d="M116.039 19.4117C114.101 19.4117 112.654 18.8303 111.699 17.6675C110.759 16.4896 110.289 14.8889 110.289 12.8653C110.289 11.5062 110.531 10.3283 111.016 9.33168C111.516 8.335 112.213 7.5724 113.109 7.04386C114.005 6.51532 115.041 6.25105 116.216 6.25105C117.684 6.25105 118.815 6.65123 119.609 7.45159C120.402 8.23685 120.813 9.36188 120.842 10.8267C120.842 11.8234 120.784 12.5633 120.666 13.0465H113.506C113.564 14.4207 113.88 15.4929 114.453 16.2631C115.026 17.0181 115.841 17.3957 116.899 17.3957C117.471 17.3957 118.059 17.2975 118.661 17.1012C119.278 16.9049 119.763 16.6708 120.115 16.399L120.666 17.6448C120.269 18.0828 119.623 18.4905 118.727 18.868C117.846 19.2304 116.95 19.4117 116.039 19.4117ZM117.758 11.6874C117.787 11.2646 117.802 10.9399 117.802 10.7134C117.802 8.70498 117.148 7.70076 115.841 7.70076C115.121 7.70076 114.563 7.99523 114.167 8.58417C113.77 9.17311 113.55 10.2075 113.506 11.6874H117.758Z" fill="#262D2D"/>
</svg>
